<svg width="24" height="24" viewBox="0 0 24 24" fill="none" xmlns="http://www.w3.org/2000/svg">
<g clip-path="url(#clip0_4171_753)">
<path d="M8.45691 12L12 15.8383L15.5431 12L12 8.16162L8.45691 12Z" fill="white"/>
<path d="M14.3347 4.8232C14.3338 4.82292 14.3329 4.82273 14.3321 4.82245C14.3314 4.82222 14.3308 4.82194 14.3301 4.8217C13.5959 4.58283 12.8129 4.45312 12 4.45312C11.1871 4.45312 10.4041 4.58283 9.66994 4.82175C9.66923 4.82198 9.66862 4.82227 9.66797 4.8225C9.66713 4.82278 9.66623 4.82297 9.66539 4.82325C6.64322 5.80875 4.45312 8.65317 4.45312 12C4.45312 15.347 6.6435 18.1916 9.66591 19.1769C9.66656 19.1772 9.66727 19.1773 9.66792 19.1775C9.66862 19.1777 9.66923 19.178 9.66989 19.1782C10.4041 19.4172 11.1871 19.5469 12 19.5469C12.8129 19.5469 13.5959 19.4172 14.3301 19.1782C14.3308 19.178 14.3314 19.1777 14.332 19.1775C14.3327 19.1773 14.3334 19.1772 14.334 19.1769C17.3565 18.1916 19.5469 15.347 19.5469 12C19.5469 8.65317 17.3568 5.80875 14.3347 4.8232ZM17.0167 12.4769L12.5167 17.3519C12.3836 17.4961 12.1963 17.5781 12 17.5781C11.8037 17.5781 11.6164 17.4961 11.4833 17.3519L6.98334 12.4769C6.73472 12.2076 6.73472 11.7924 6.98334 11.5231L11.4833 6.64809C11.6164 6.50391 11.8037 6.42188 12 6.42188C12.1963 6.42188 12.3836 6.50391 12.5167 6.64809L17.0167 11.5231C17.2653 11.7924 17.2653 12.2076 17.0167 12.4769Z" fill="white"/>
<path d="M20.9256 12.7031C20.8126 14.1506 20.3537 15.5023 19.632 16.6759L22.1076 18.4745C23.2148 16.7535 23.8599 14.7781 23.9791 12.7031H20.9256Z" fill="white"/>
<path d="M9.91047 3.29367C10.5811 3.1327 11.2807 3.04688 12 3.04688C12.7194 3.04688 13.4189 3.1327 14.0896 3.29367L15.0345 0.385687C14.0556 0.131672 13.038 0 12 0C10.9621 0 9.9445 0.131672 8.96561 0.385641L9.91047 3.29367Z" fill="white"/>
<path d="M19.632 7.32411C20.3537 8.49776 20.8126 9.84945 20.9256 11.2969H23.9791C23.8599 9.22194 23.2148 7.24658 22.1076 5.52551L19.632 7.32411Z" fill="white"/>
<path d="M15.4267 3.7291C16.7386 4.27464 17.8936 5.12336 18.804 6.18756L21.2792 4.3892C21.0304 4.087 20.7657 3.79511 20.4853 3.5147C19.294 2.32337 17.896 1.41381 16.3724 0.818542L15.4267 3.7291Z" fill="white"/>
<path d="M1.8924 5.52551C0.785169 7.24658 0.140075 9.22194 0.0209656 11.2969H3.0744C3.18737 9.84945 3.64628 8.49776 4.36797 7.32411L1.8924 5.52551Z" fill="white"/>
<path d="M8.57337 20.2709C7.26153 19.7254 6.10653 18.8766 5.19607 17.8124L2.72089 19.6108C2.96965 19.913 3.23436 20.2048 3.51476 20.4853C4.70614 21.6766 6.10414 22.5861 7.62771 23.1814L8.57337 20.2709Z" fill="white"/>
<path d="M14.0896 20.7063C13.4189 20.8673 12.7193 20.9531 12 20.9531C11.2807 20.9531 10.5811 20.8673 9.91047 20.7063L8.96561 23.6143C9.94445 23.8683 10.9621 24 12 24C13.038 24 14.0556 23.8683 15.0344 23.6143L14.0896 20.7063Z" fill="white"/>
<path d="M18.804 17.8125C17.8935 18.8767 16.7385 19.7254 15.4267 20.271L16.3724 23.1815C17.8959 22.5862 19.2939 21.6767 20.4853 20.4854C20.7657 20.205 21.0304 19.9131 21.2792 19.6109L18.804 17.8125Z" fill="white"/>
<path d="M5.19606 6.1875C6.10651 5.12329 7.26151 4.27458 8.57336 3.72904L7.62765 0.818481C6.10408 1.41379 4.70608 2.32331 3.5147 3.51468C3.23429 3.79509 2.96964 4.08698 2.72083 4.38918L5.19606 6.1875Z" fill="white"/>
<path d="M3.0744 12.7031H0.0209656C0.140075 14.7781 0.785169 16.7535 1.8924 18.4745L4.36797 16.6759C3.64628 15.5023 3.18737 14.1506 3.0744 12.7031Z" fill="white"/>
</g>
<defs>
<clipPath id="clip0_4171_753">
<rect width="24" height="24" fill="white"/>
</clipPath>
</defs>
</svg>
