<svg width="40" height="40" viewBox="0 0 40 40" fill="none" xmlns="http://www.w3.org/2000/svg">
<g clip-path="url(#clip0_4171_1034)">
<path d="M32.7201 12.2069C33.9229 14.163 34.6877 16.4158 34.876 18.8282H39.9651C39.7666 15.3699 38.6914 12.0777 36.846 9.20923L32.7201 12.2069Z" fill="white"/>
<path d="M5.12397 18.8282C5.31226 16.4158 6.0771 14.163 7.27991 12.2069L3.15397 9.20923C1.30858 12.0777 0.233428 15.3699 0.0349121 18.8282H5.12397Z" fill="white"/>
<path d="M32.5781 20C32.5781 14.422 28.928 9.68125 23.8911 8.03867C23.8897 8.0382 23.8882 8.03789 23.8868 8.03742C23.8856 8.03703 23.8846 8.03656 23.8835 8.03617C22.6598 7.63805 21.3548 7.42188 20 7.42188C18.6452 7.42188 17.3402 7.63805 16.1166 8.03625C16.1154 8.03664 16.1144 8.03711 16.1133 8.0375C16.1119 8.03797 16.1104 8.03828 16.109 8.03875C11.072 9.68125 7.42188 14.422 7.42188 20C7.42188 25.5784 11.0725 30.3194 16.1098 31.9616C16.1109 31.962 16.1121 31.9621 16.1132 31.9625C16.1144 31.9629 16.1154 31.9634 16.1165 31.9637C17.3402 32.362 18.6452 32.5781 20 32.5781C21.3548 32.5781 22.6598 32.362 23.8834 31.9637C23.8846 31.9634 23.8856 31.9629 23.8867 31.9625C23.8878 31.9621 23.889 31.962 23.8901 31.9616C28.9275 30.3193 32.5781 25.5784 32.5781 20ZM23.75 26.1719C23.5942 26.1719 23.4395 26.1655 23.2861 26.153L23.6582 28.5718C23.7102 28.9098 23.612 29.2535 23.3895 29.513C23.1668 29.7726 22.842 29.9219 22.5 29.9219H17.5C17.158 29.9219 16.8332 29.7726 16.6105 29.513C16.3879 29.2535 16.2898 28.9098 16.3418 28.5718L16.7139 26.153C16.5605 26.1655 16.4058 26.1719 16.25 26.1719C13.1915 26.1719 10.7031 23.6835 10.7031 20.625C10.7031 18.2227 12.2573 16.128 14.4586 15.3757C14.5893 12.4323 17.0249 10.0781 20 10.0781C22.9751 10.0781 25.4107 12.4323 25.5414 15.3757C27.7427 16.128 29.2969 18.2227 29.2969 20.625C29.2969 23.6835 26.8085 26.1719 23.75 26.1719Z" fill="white"/>
<path d="M5.12397 21.1719H0.0349121C0.233428 24.6302 1.30858 27.9224 3.15397 30.7909L7.27991 27.7932C6.0771 25.8371 5.31226 23.5843 5.12397 21.1719Z" fill="white"/>
<path d="M34.876 21.1719C34.6877 23.5843 33.9229 25.8371 32.7201 27.7932L36.846 30.7909C38.6914 27.9224 39.7666 24.6302 39.9651 21.1719H34.876Z" fill="white"/>
<path d="M24.1723 17.4507C23.8601 17.4097 23.5776 17.2448 23.3883 16.993C23.1991 16.7413 23.1191 16.4241 23.1663 16.1128C23.1907 15.9523 23.2031 15.7881 23.2031 15.625C23.2031 13.8588 21.7662 12.4219 20 12.4219C18.2338 12.4219 16.7969 13.8588 16.7969 15.625C16.7969 15.7881 16.8092 15.9523 16.8337 16.1128C16.8809 16.4241 16.8009 16.7414 16.6117 16.993C16.4224 17.2447 16.1399 17.4097 15.8277 17.4507C14.2423 17.6589 13.0469 19.0236 13.0469 20.625C13.0469 22.3912 14.4838 23.8281 16.25 23.8281C16.7357 23.8281 17.2018 23.7224 17.6352 23.5141C18.0272 23.3257 18.4912 23.3698 18.8406 23.6287C19.1901 23.8876 19.3673 24.3187 19.3012 24.7484L18.8659 27.5781H21.134L20.6988 24.7484C20.6326 24.3187 20.8099 23.8876 21.1594 23.6287C21.5088 23.3698 21.9727 23.3257 22.3648 23.5141C22.7983 23.7224 23.2644 23.8281 23.75 23.8281C25.5162 23.8281 26.9531 22.3912 26.9531 20.625C26.9531 19.0236 25.7577 17.6589 24.1723 17.4507Z" fill="white"/>
<path d="M14.2889 33.7849C12.1025 32.8757 10.1775 31.4612 8.66004 29.6875L4.53473 32.6847C4.94934 33.1884 5.39051 33.6748 5.85785 34.1422C7.84348 36.1277 10.1735 37.6437 12.7128 38.6358L14.2889 33.7849Z" fill="white"/>
<path d="M31.3399 29.6875C29.8225 31.4612 27.8975 32.8757 25.7111 33.7849L27.2872 38.6359C29.8265 37.6438 32.1565 36.1278 34.1422 34.1423C34.6095 33.6749 35.0506 33.1884 35.4653 32.6848L31.3399 29.6875Z" fill="white"/>
<path d="M25.7112 6.2152C27.8976 7.12441 29.8226 8.53895 31.34 10.3126L35.4653 7.31535C35.0507 6.81168 34.6095 6.3252 34.1422 5.85785C32.1567 3.8723 29.8267 2.35637 27.2874 1.36426L25.7112 6.2152Z" fill="white"/>
<path d="M23.4825 34.5105C22.3648 34.7788 21.1988 34.9218 20 34.9218C18.8011 34.9218 17.6351 34.7788 16.5174 34.5105L14.9426 39.3572C16.574 39.7805 18.27 40 20 40C21.7299 40 23.4259 39.7805 25.0573 39.3571L23.4825 34.5105Z" fill="white"/>
<path d="M8.66006 10.3126C10.1775 8.53895 12.1025 7.12441 14.2889 6.2152L12.7127 1.36426C10.1734 2.35645 7.84342 3.8723 5.85779 5.85793C5.39045 6.32527 4.94936 6.81176 4.53467 7.31543L8.66006 10.3126Z" fill="white"/>
<path d="M16.5174 5.48945C17.6351 5.22117 18.8011 5.07812 20 5.07812C21.1989 5.07812 22.3648 5.22117 23.4825 5.48945L25.0574 0.642812C23.4259 0.219453 21.7299 0 20 0C18.27 0 16.5741 0.219453 14.9426 0.642734L16.5174 5.48945Z" fill="white"/>
</g>
<defs>
<clipPath id="clip0_4171_1034">
<rect width="40" height="40" fill="white"/>
</clipPath>
</defs>
</svg>
