<svg width="288" height="64" viewBox="0 0 288 64" fill="none" xmlns="http://www.w3.org/2000/svg">
<path d="M99.7458 42.8871H74.6406V38.1696L89.6839 23.885H74.7396V18.3428H99.6138V23.0603L83.9437 37.2789H99.7458V42.8871Z" fill="white"/>
<path d="M118.458 43.25C106.416 43.25 105.031 35.6954 105.031 30.8129V18.3428H111.827V30.6479C111.827 33.4521 112.618 37.4768 118.854 37.4768H119.018C125.286 37.4768 125.979 33.4521 125.979 30.6479V18.3428H132.742V30.8129C132.742 35.7283 130.994 43.25 119.414 43.25H118.458Z" fill="white"/>
<path d="M145.432 23.7531V28.9655H154.9C157.672 28.9655 158.43 27.7778 158.43 26.3593V26.2933C158.43 24.9077 157.672 23.7531 154.9 23.7531H145.432ZM160.377 31.0768C163.709 31.8356 165.721 33.8479 165.721 37.4438V39.984C165.721 41.8314 165.919 42.3263 166.117 42.7222V42.8871H159.09C158.991 42.7222 158.859 42.2603 158.859 41.1716V39.1593C158.859 35.9923 157.705 34.5407 154.274 34.5407H145.432V42.8871H138.636V18.3428H155.164C164.5 18.3428 165.556 22.2356 165.556 24.9077V25.2376C165.556 28.3057 163.445 30.384 160.377 31.0768Z" fill="white"/>
<path d="M183.814 43.316H182.857C171.344 43.316 170.024 38.1036 170.024 35.1675V34.8046H177.414C177.513 35.8933 177.975 38.3345 183.187 38.3345H183.418C188.532 38.3345 189.191 36.784 189.191 35.3984C189.191 33.9469 188.235 32.9902 184.177 32.8582L180.911 32.7593C172.861 32.5283 170.288 29.2954 170.288 25.6005V25.3036C170.288 21.5098 172.334 18.0459 182.494 18.0459H183.616C194.47 18.0459 195.954 22.0046 195.954 25.2376V25.6005H188.664C188.499 24.5118 187.872 22.8954 183.154 22.8954H182.824C178.47 22.8954 177.447 23.7201 177.447 25.0727C177.447 26.3263 178.338 27.25 182.198 27.4149L185.596 27.5469C194.338 27.8768 196.449 30.7469 196.449 34.7387V35.1345C196.449 38.7304 194.8 43.316 183.814 43.316Z" fill="white"/>
<path d="M201.523 18.3428H208.319V37.1139H223.329V42.8871H201.523V18.3428Z" fill="white"/>
<path d="M240.632 17.9469H242.083C253.564 17.9469 256.83 24.7098 256.83 30.0541V31.0438C256.83 36.3222 253.564 43.283 242.083 43.283H240.632C229.151 43.283 225.885 36.3222 225.885 31.0438V30.0541C225.885 24.7098 229.151 17.9469 240.632 17.9469ZM249.77 30.318C249.77 27.283 248.285 23.5551 241.358 23.5551C234.496 23.5551 232.945 27.283 232.945 30.318V30.7799C232.945 33.749 234.595 37.6417 241.358 37.6417C248.252 37.6417 249.77 33.749 249.77 30.7799V30.318Z" fill="white"/>
<path d="M268.946 42.8871V23.951H259.445V18.3428H285.21V23.951H275.709V42.8871H268.946Z" fill="white"/>
<g clip-path="url(#clip0_4171_394)">
<path d="M45.25 0H18.75C8.39466 0 0 8.39466 0 18.75V45.25C0 55.6053 8.39466 64 18.75 64H45.25C55.6053 64 64 55.6053 64 45.25V18.75C64 8.39466 55.6053 0 45.25 0Z" fill="url(#paint0_linear_4171_394)"/>
<path d="M39.2239 14.0984L26.3714 19.5559L15.7627 49.486L30.2764 63.9997H45.2527C55.6077 63.9997 64.0027 55.6047 64.0027 45.2497V38.876L39.2252 14.0984H39.2239Z" fill="url(#paint1_linear_4171_394)"/>
<path d="M42.0623 50.2719C39.0386 50.2719 37.4048 49.7857 37.1623 48.8119L35.4423 42.0869H27.1536L25.6423 48.5507C25.4336 49.6294 23.7661 50.1669 20.6373 50.1669C18.9698 50.1669 17.7348 50.0719 16.9361 49.8794C16.1361 49.6894 15.7373 49.5407 15.7373 49.4369L24.9636 14.1456C24.9636 13.8681 27.3436 13.7281 32.1061 13.7281C36.8686 13.7281 39.2473 13.8669 39.2473 14.1456L48.2661 49.4907C48.2661 49.7344 47.4661 49.9257 45.8686 50.0644C44.2698 50.2019 43.0011 50.2719 42.0623 50.2719ZM28.4561 35.4669H33.9298L31.5836 24.6756H31.2711L28.4561 35.4669Z" fill="white"/>
</g>
<defs>
<linearGradient id="paint0_linear_4171_394" x1="5.49125" y1="5.49125" x2="58.5088" y2="58.5088" gradientUnits="userSpaceOnUse">
<stop stop-color="#54BDFF"/>
<stop offset="1" stop-color="#0042C7"/>
</linearGradient>
<linearGradient id="paint1_linear_4171_394" x1="20.8139" y1="25.1135" x2="56.3589" y2="60.6585" gradientUnits="userSpaceOnUse">
<stop stop-opacity="0.5"/>
<stop offset="1" stop-opacity="0"/>
</linearGradient>
<clipPath id="clip0_4171_394">
<rect width="64" height="64" fill="white"/>
</clipPath>
</defs>
</svg>
