<svg width="32" height="32" viewBox="0 0 32 32" fill="none" xmlns="http://www.w3.org/2000/svg">
<path d="M6.21555 27C5.62817 27 5.05201 26.8165 4.5496 26.4694C4.04719 26.1223 3.63773 25.6248 3.36568 25.0309C3.09363 24.4371 2.96937 23.7695 3.0064 23.1008C3.04342 22.4321 3.24032 21.7877 3.57572 21.2376L12.0419 7.35809C12.4861 6.63019 13.0781 6.03562 13.7673 5.62503C14.4565 5.21443 15.2225 5 16 5C16.7775 5 17.5435 5.21443 18.2327 5.62503C18.9219 6.03562 19.5139 6.63019 19.9581 7.35809L28.4243 21.2376C28.7597 21.7877 28.9566 22.4321 28.9936 23.1008C29.0306 23.7695 28.9064 24.4371 28.6343 25.0309C28.3623 25.6248 27.9528 26.1223 27.4504 26.4694C26.948 26.8165 26.3718 27 25.7844 27H6.21555Z" fill="white"/>
</svg>
